<?xml version="1.0" encoding="UTF-8" standalone="no"?>
<svg
   xmlns:dc="http://purl.org/dc/elements/1.1/"
   xmlns:cc="http://creativecommons.org/ns#"
   xmlns:rdf="http://www.w3.org/1999/02/22-rdf-syntax-ns#"
   xmlns:svg="http://www.w3.org/2000/svg"
   xmlns="http://www.w3.org/2000/svg"
   viewBox="0 0 412 76"
   height="76"
   width="412"
   xml:space="preserve"
   id="svg2"
   version="1.1"><metadata
     id="metadata8"><rdf:RDF><cc:Work
         rdf:about=""><dc:format>image/svg+xml</dc:format><dc:type
           rdf:resource="http://purl.org/dc/dcmitype/StillImage" /></cc:Work></rdf:RDF></metadata><defs
     id="defs6" /><g
     transform="matrix(1.3333333,0,0,-1.3333333,0,76)"
     id="g10"><g
       transform="scale(0.1)"
       id="g12"><path
         id="path14"
         style="fill:#ffffff;fill-opacity:1;fill-rule:nonzero;stroke:none"
         d="M 0,0 H 3090 V 570 H 0 Z" /><path
         id="path16"
         style="fill:#ffffff;fill-opacity:1;fill-rule:nonzero;stroke:none"
         d="M 0,0 H 3810 V 690 H 0 Z" /><g
         transform="scale(10)"
         id="g18"><text
           id="text28"
           style="font-variant:normal;font-weight:normal;font-size:16px;font-family:HelveticaNeue;-inkscape-font-specification:HelveticaNeue;writing-mode:lr-tb;fill:#000000;fill-opacity:1;fill-rule:nonzero;stroke:none"
           transform="matrix(1,0,0,-1,5.76641,37)"><tspan
             id="tspan20"
             y="0"
             x="0">a</tspan><tspan
             id="tspan22"
             y="27"
             x="-0.44804701">b</tspan><tspan
             id="tspan24"
             y="0"
             x="58.616055 63.064053 72.552055 81.144051 90.040054 98.63205 107.52805">‘banan’</tspan><tspan
             id="tspan26"
             y="27"
             x="58.616055 63.064053 72.552055 81.144051 90.040054 98.63205 107.52805">‘banan’</tspan></text>
</g><path
         id="path30"
         style="fill:none;stroke:#000000;stroke-width:20;stroke-linecap:round;stroke-linejoin:round;stroke-miterlimit:10;stroke-dasharray:none;stroke-opacity:1"
         d="m 195.625,420 h 110 l 89.102,3.879 70.105,2.453" /><path
         id="path32"
         style="fill:#000000;fill-opacity:1;fill-rule:nonzero;stroke:none"
         d="m 560.828,427.395 -96.394,34.937 0.796,-71.996 z" /><path
         id="path34"
         style="fill:none;stroke:#000000;stroke-width:20;stroke-linecap:butt;stroke-linejoin:miter;stroke-miterlimit:10;stroke-dasharray:none;stroke-opacity:1"
         d="m 560.828,427.395 -96.394,34.937 0.796,-71.996 z" /><path
         id="path36"
         style="fill:none;stroke:#000000;stroke-width:20;stroke-linecap:round;stroke-linejoin:round;stroke-miterlimit:10;stroke-dasharray:none;stroke-opacity:1"
         d="m 200.625,150 h 110 l 86.602,3.879 67.605,2.422" /><path
         id="path38"
         style="fill:#000000;fill-opacity:1;fill-rule:nonzero;stroke:none"
         d="m 560.828,157.387 -96.402,34.91 0.816,-71.996 z" /><path
         id="path40"
         style="fill:none;stroke:#000000;stroke-width:20;stroke-linecap:butt;stroke-linejoin:miter;stroke-miterlimit:10;stroke-dasharray:none;stroke-opacity:1"
         d="m 560.828,157.387 -96.402,34.91 0.816,-71.996 z" /><g
         transform="scale(10)"
         id="g42"><text
           id="text50"
           style="font-variant:normal;font-weight:normal;font-size:16px;font-family:HelveticaNeue;-inkscape-font-specification:HelveticaNeue;writing-mode:lr-tb;fill:#000000;fill-opacity:1;fill-rule:nonzero;stroke:none"
           transform="matrix(1,0,0,-1,185.766,37)"><tspan
             id="tspan44"
             y="0"
             x="0">a</tspan><tspan
             id="tspan46"
             y="27"
             x="-0.44804701">b</tspan><tspan
             id="tspan48"
             y="14"
             x="64.616051 69.064056 78.552055 87.144051 96.040054 104.63205 113.52805">‘banan’</tspan></text>
</g><path
         id="path52"
         style="fill:none;stroke:#000000;stroke-width:20;stroke-linecap:round;stroke-linejoin:round;stroke-miterlimit:10;stroke-dasharray:none;stroke-opacity:1"
         d="m 1995.63,405.559 330.66,-50.258" /><path
         id="path54"
         style="fill:#000000;fill-opacity:1;fill-rule:nonzero;stroke:none"
         d="m 2421.2,340.871 -89.5,50.02 -10.82,-71.184 z" /><path
         id="path56"
         style="fill:none;stroke:#000000;stroke-width:20;stroke-linecap:butt;stroke-linejoin:miter;stroke-miterlimit:10;stroke-dasharray:none;stroke-opacity:1"
         d="m 2421.2,340.871 -89.5,50.02 -10.82,-71.184 z" /><path
         id="path58"
         style="fill:none;stroke:#000000;stroke-width:20;stroke-linecap:round;stroke-linejoin:round;stroke-miterlimit:10;stroke-dasharray:none;stroke-opacity:1"
         d="m 2000.63,165.836 325.78,51.586" /><path
         id="path60"
         style="fill:#000000;fill-opacity:1;fill-rule:nonzero;stroke:none"
         d="m 2421.23,232.434 -100.45,20.543 11.26,-71.114 z" /><path
         id="path62"
         style="fill:none;stroke:#000000;stroke-width:20;stroke-linecap:butt;stroke-linejoin:miter;stroke-miterlimit:10;stroke-dasharray:none;stroke-opacity:1"
         d="m 2421.23,232.434 -100.45,20.543 11.26,-71.114 z" /></g></g></svg>