<?xml version="1.0" encoding="UTF-8" standalone="no"?>
<svg
   xmlns:dc="http://purl.org/dc/elements/1.1/"
   xmlns:cc="http://creativecommons.org/ns#"
   xmlns:rdf="http://www.w3.org/1999/02/22-rdf-syntax-ns#"
   xmlns:svg="http://www.w3.org/2000/svg"
   xmlns="http://www.w3.org/2000/svg"
   viewBox="0 0 410.66666 230.66667"
   height="230.66667"
   width="410.66666"
   xml:space="preserve"
   id="svg2"
   version="1.1"><metadata
     id="metadata8"><rdf:RDF><cc:Work
         rdf:about=""><dc:format>image/svg+xml</dc:format><dc:type
           rdf:resource="http://purl.org/dc/dcmitype/StillImage" /></cc:Work></rdf:RDF></metadata><defs
     id="defs6" /><g
     transform="matrix(1.3333333,0,0,-1.3333333,0,230.66667)"
     id="g10"><g
       transform="scale(0.1)"
       id="g12"><path
         id="path14"
         style="fill:#ffffff;fill-opacity:1;fill-rule:nonzero;stroke:none"
         d="M 0,0 H 3080 V 1730 H 0 Z" /><path
         id="path16"
         style="fill:#ffffff;fill-opacity:1;fill-rule:nonzero;stroke:none"
         d="M 0,0 H 3800 V 1900 H 0 Z" /><path
         id="path18"
         style="fill:#ffffff;fill-opacity:1;fill-rule:nonzero;stroke:none"
         d="m 90,1720 h 2900 c 44.18,0 80,-35.82 80,-80 V 90 c 0,-44.1836 -35.82,-80 -80,-80 H 90 C 45.8164,10 10,45.8164 10,90 v 1550 c 0,44.18 35.8164,80 80,80 z" /><path
         id="path20"
         style="fill:none;stroke:#000000;stroke-width:10;stroke-linecap:round;stroke-linejoin:round;stroke-miterlimit:10;stroke-dasharray:none;stroke-opacity:1"
         d="m 90,1720 h 2900 c 44.18,0 80,-35.82 80,-80 V 90 c 0,-44.1836 -35.82,-80 -80,-80 H 90 C 45.8164,10 10,45.8164 10,90 v 1550 c 0,44.18 35.8164,80 80,80 z" /><path
         id="path22"
         style="fill:#ffffff;fill-opacity:1;fill-rule:nonzero;stroke:none"
         d="m 2919.1,1029.1 c 87.87,-87.87 87.87,-230.33 0,-318.198 -87.87,-87.871 -230.33,-87.871 -318.2,0 -87.87,87.868 -87.87,230.328 0,318.198 87.87,87.87 230.33,87.87 318.2,0" /><path
         id="path24"
         style="fill:none;stroke:#000000;stroke-width:10;stroke-linecap:round;stroke-linejoin:round;stroke-miterlimit:10;stroke-dasharray:none;stroke-opacity:1"
         d="m 2919.1,1029.1 c 87.87,-87.87 87.87,-230.33 0,-318.198 -87.87,-87.871 -230.33,-87.871 -318.2,0 -87.87,87.868 -87.87,230.328 0,318.198 87.87,87.87 230.33,87.87 318.2,0" /><path
         id="path26"
         style="fill:#000000;fill-opacity:1;fill-rule:nonzero;stroke:none"
         d="m 2823.64,933.641 c 35.15,-35.149 35.15,-92.133 0,-127.282 -35.15,-35.144 -92.13,-35.144 -127.28,0 -35.15,35.149 -35.15,92.133 0,127.282 35.15,35.144 92.13,35.144 127.28,0" /><path
         id="path28"
         style="fill:none;stroke:#000000;stroke-width:10;stroke-linecap:round;stroke-linejoin:round;stroke-miterlimit:10;stroke-dasharray:none;stroke-opacity:1"
         d="m 2823.64,933.641 c 35.15,-35.149 35.15,-92.133 0,-127.282 -35.15,-35.144 -92.13,-35.144 -127.28,0 -35.15,35.149 -35.15,92.133 0,127.282 35.15,35.144 92.13,35.144 127.28,0" /><path
         id="path30"
         style="fill:#ffffff;fill-opacity:1;fill-rule:nonzero;stroke:none"
         d="m 270,1530 h 380 c 44.184,0 80,-35.82 80,-80 v -380 c 0,-44.18 -35.816,-80 -80,-80 H 270 c -44.184,0 -80,35.82 -80,80 v 380 c 0,44.18 35.816,80 80,80 z" /><path
         id="path32"
         style="fill:none;stroke:#000000;stroke-width:10;stroke-linecap:round;stroke-linejoin:round;stroke-miterlimit:10;stroke-dasharray:none;stroke-opacity:1"
         d="m 270,1530 h 380 c 44.184,0 80,-35.82 80,-80 v -380 c 0,-44.18 -35.816,-80 -80,-80 H 270 c -44.184,0 -80,35.82 -80,80 v 380 c 0,44.18 35.816,80 80,80 z" /><g
         transform="scale(10)"
         id="g34"><text
           id="text40"
           style="font-variant:normal;font-weight:normal;font-size:12px;font-family:Helvetica;-inkscape-font-specification:Helvetica;writing-mode:lr-tb;fill:#000000;fill-opacity:1;fill-rule:nonzero;stroke:none"
           transform="matrix(1,0,0,-1,24.3848,129)"><tspan
             id="tspan36"
             y="0"
             x="0 11.220703 17.220703 23.894531 26.560545 33.234375 37.230377 43.230377">Wybierz </tspan><tspan
             id="tspan38"
             y="14"
             x="6.9433599 16.93936 23.613188 26.279202 32.953033">mnie!</tspan></text>
</g><path
         id="path42"
         style="fill:#ffffff;fill-opacity:1;fill-rule:nonzero;stroke:none"
         d="m 270,730 h 380 c 44.184,0 80,-35.816 80,-80 V 270 c 0,-44.184 -35.816,-80 -80,-80 H 270 c -44.184,0 -80,35.816 -80,80 v 380 c 0,44.184 35.816,80 80,80 z" /><path
         id="path44"
         style="fill:none;stroke:#000000;stroke-width:10;stroke-linecap:round;stroke-linejoin:round;stroke-miterlimit:10;stroke-dasharray:none;stroke-opacity:1"
         d="m 270,730 h 380 c 44.184,0 80,-35.816 80,-80 V 270 c 0,-44.184 -35.816,-80 -80,-80 H 270 c -44.184,0 -80,35.816 -80,80 v 380 c 0,44.184 35.816,80 80,80 z" /><g
         transform="scale(10)"
         id="g46"><text
           id="text52"
           style="font-variant:normal;font-weight:normal;font-size:12px;font-family:Helvetica;-inkscape-font-specification:Helvetica;writing-mode:lr-tb;fill:#000000;fill-opacity:1;fill-rule:nonzero;stroke:none"
           transform="matrix(1,0,0,-1,24.3848,49)"><tspan
             id="tspan48"
             y="0"
             x="0 11.220703 17.220703 23.894531 26.560545 33.234375 37.230377 43.230377">Wybierz </tspan><tspan
             id="tspan50"
             y="14"
             x="6.9433599 16.93936 23.613188 26.279202 32.953033">mnie!</tspan></text>
</g><path
         id="path54"
         style="fill:#ffffff;fill-opacity:1;fill-rule:nonzero;stroke:none"
         d="m 1080,1530 h 380 c 44.18,0 80,-35.82 80,-80 v -380 c 0,-44.18 -35.82,-80 -80,-80 h -380 c -44.18,0 -80,35.82 -80,80 v 380 c 0,44.18 35.82,80 80,80 z" /><path
         id="path56"
         style="fill:none;stroke:#000000;stroke-width:10;stroke-linecap:round;stroke-linejoin:round;stroke-miterlimit:10;stroke-dasharray:none;stroke-opacity:1"
         d="m 1080,1530 h 380 c 44.18,0 80,-35.82 80,-80 v -380 c 0,-44.18 -35.82,-80 -80,-80 h -380 c -44.18,0 -80,35.82 -80,80 v 380 c 0,44.18 35.82,80 80,80 z" /><g
         transform="scale(10)"
         id="g58"><text
           id="text64"
           style="font-variant:normal;font-weight:normal;font-size:12px;font-family:Helvetica;-inkscape-font-specification:Helvetica;writing-mode:lr-tb;fill:#000000;fill-opacity:1;fill-rule:nonzero;stroke:none"
           transform="matrix(1,0,0,-1,105.385,129)"><tspan
             id="tspan60"
             y="0"
             x="0 11.2207 17.220699 23.894531 26.560545 33.234375 37.230377 43.230377">Wybierz </tspan><tspan
             id="tspan62"
             y="14"
             x="6.9433599 16.93936 23.613192 26.279205 32.953037">mnie!</tspan></text>
</g><path
         id="path66"
         style="fill:#ffffff;fill-opacity:1;fill-rule:nonzero;stroke:none"
         d="m 1080,730 h 380 c 44.18,0 80,-35.816 80,-80 V 270 c 0,-44.184 -35.82,-80 -80,-80 h -380 c -44.18,0 -80,35.816 -80,80 v 380 c 0,44.184 35.82,80 80,80 z" /><path
         id="path68"
         style="fill:none;stroke:#000000;stroke-width:10;stroke-linecap:round;stroke-linejoin:round;stroke-miterlimit:10;stroke-dasharray:none;stroke-opacity:1"
         d="m 1080,730 h 380 c 44.18,0 80,-35.816 80,-80 V 270 c 0,-44.184 -35.82,-80 -80,-80 h -380 c -44.18,0 -80,35.816 -80,80 v 380 c 0,44.184 35.82,80 80,80 z" /><g
         transform="scale(10)"
         id="g70"><text
           id="text76"
           style="font-variant:normal;font-weight:normal;font-size:12px;font-family:Helvetica;-inkscape-font-specification:Helvetica;writing-mode:lr-tb;fill:#000000;fill-opacity:1;fill-rule:nonzero;stroke:none"
           transform="matrix(1,0,0,-1,105.385,49)"><tspan
             id="tspan72"
             y="0"
             x="0 11.2207 17.220699 23.894531 26.560545 33.234375 37.230377 43.230377">Wybierz </tspan><tspan
             id="tspan74"
             y="14"
             x="6.9433599 16.93936 23.613192 26.279205 32.953037">mnie!</tspan></text>
</g><path
         id="path78"
         style="fill:#ffffff;fill-opacity:1;fill-rule:nonzero;stroke:none"
         d="m 1890,1530 h 380 c 44.18,0 80,-35.82 80,-80 v -380 c 0,-44.18 -35.82,-80 -80,-80 h -380 c -44.18,0 -80,35.82 -80,80 v 380 c 0,44.18 35.82,80 80,80 z" /><path
         id="path80"
         style="fill:none;stroke:#000000;stroke-width:10;stroke-linecap:round;stroke-linejoin:round;stroke-miterlimit:10;stroke-dasharray:none;stroke-opacity:1"
         d="m 1890,1530 h 380 c 44.18,0 80,-35.82 80,-80 v -380 c 0,-44.18 -35.82,-80 -80,-80 h -380 c -44.18,0 -80,35.82 -80,80 v 380 c 0,44.18 35.82,80 80,80 z" /><g
         transform="scale(10)"
         id="g82"><text
           id="text88"
           style="font-variant:normal;font-weight:normal;font-size:12px;font-family:Helvetica;-inkscape-font-specification:Helvetica;writing-mode:lr-tb;fill:#000000;fill-opacity:1;fill-rule:nonzero;stroke:none"
           transform="matrix(1,0,0,-1,186.385,129)"><tspan
             id="tspan84"
             y="0"
             x="0 11.2207 17.220699 23.894531 26.560558 33.23439 37.230389 43.230389">Wybierz </tspan><tspan
             id="tspan86"
             y="14"
             x="6.9433599 16.93936 23.613192 26.279217 32.953049">mnie!</tspan></text>
</g><path
         id="path90"
         style="fill:#ffffff;fill-opacity:1;fill-rule:nonzero;stroke:none"
         d="m 1890,730 h 380 c 44.18,0 80,-35.816 80,-80 V 270 c 0,-44.184 -35.82,-80 -80,-80 h -380 c -44.18,0 -80,35.816 -80,80 v 380 c 0,44.184 35.82,80 80,80 z" /><path
         id="path92"
         style="fill:none;stroke:#000000;stroke-width:10;stroke-linecap:round;stroke-linejoin:round;stroke-miterlimit:10;stroke-dasharray:none;stroke-opacity:1"
         d="m 1890,730 h 380 c 44.18,0 80,-35.816 80,-80 V 270 c 0,-44.184 -35.82,-80 -80,-80 h -380 c -44.18,0 -80,35.816 -80,80 v 380 c 0,44.184 35.82,80 80,80 z" /><g
         transform="scale(10)"
         id="g94"><text
           id="text100"
           style="font-variant:normal;font-weight:normal;font-size:12px;font-family:Helvetica;-inkscape-font-specification:Helvetica;writing-mode:lr-tb;fill:#000000;fill-opacity:1;fill-rule:nonzero;stroke:none"
           transform="matrix(1,0,0,-1,197.324,49)"><tspan
             id="tspan96"
             y="0"
             x="0 8.0039997 14.677831 21.351662">Kup </tspan><tspan
             id="tspan98"
             y="14"
             x="-7.6609402 2.3350599 9.0088911 11.674917 18.348749 21.682722 25.016695">mnie :)</tspan></text>
</g></g></g></svg>