<?xml version="1.0" encoding="UTF-8" standalone="no"?>
<svg
   xmlns:dc="http://purl.org/dc/elements/1.1/"
   xmlns:cc="http://creativecommons.org/ns#"
   xmlns:rdf="http://www.w3.org/1999/02/22-rdf-syntax-ns#"
   xmlns:svg="http://www.w3.org/2000/svg"
   xmlns="http://www.w3.org/2000/svg"
   viewBox="0 0 790.66669 290.66666"
   height="290.66666"
   width="790.66669"
   xml:space="preserve"
   id="svg2"
   version="1.1"><metadata
     id="metadata8"><rdf:RDF><cc:Work
         rdf:about=""><dc:format>image/svg+xml</dc:format><dc:type
           rdf:resource="http://purl.org/dc/dcmitype/StillImage" /></cc:Work></rdf:RDF></metadata><defs
     id="defs6" /><g
     transform="matrix(1.3333333,0,0,-1.3333333,0,290.66667)"
     id="g10"><g
       transform="scale(0.1)"
       id="g12"><path
         id="path14"
         style="fill:#ffffff;fill-opacity:1;fill-rule:nonzero;stroke:none"
         d="M 0,0 H 5930 V 2180 H 0 Z" /><path
         id="path16"
         style="fill:#ffffff;fill-opacity:1;fill-rule:nonzero;stroke:none"
         d="M 0,0 H 6650 V 2260 H 0 Z" /><path
         id="path18"
         style="fill:#ffffff;fill-opacity:1;fill-rule:nonzero;stroke:none"
         d="m 1030,1630 h 1170 v 540 H 1030 Z" /><path
         id="path20"
         style="fill:none;stroke:#000000;stroke-width:10;stroke-linecap:round;stroke-linejoin:round;stroke-miterlimit:10;stroke-dasharray:none;stroke-opacity:1"
         d="m 1030,1630 h 1170 v 540 H 1030 Z" /><g
         transform="scale(10)"
         id="g22"><text
           id="text28"
           style="font-variant:normal;font-weight:normal;font-size:16px;font-family:HelveticaNeue;-inkscape-font-specification:HelveticaNeue;writing-mode:lr-tb;fill:#000000;fill-opacity:1;fill-rule:nonzero;stroke:none"
           transform="matrix(1,0,0,-1,108,197)"><tspan
             id="tspan24"
             y="0"
             x="0 12.16 21.648001 25.200001 33.792 42.096001">Obiekt</tspan><tspan
             id="tspan26"
             y="18.448"
             x="0 8.592 12.144 20.736 29.92 38.816002 43.264 50.944 59.84 68.431999 76.736 85.919998">ciągu znaków</tspan></text>
</g><path
         id="path30"
         style="fill:none;stroke:#000000;stroke-width:10;stroke-linecap:round;stroke-linejoin:round;stroke-miterlimit:10;stroke-dasharray:none;stroke-opacity:1"
         d="M 5036.61,1907.25 4905,1905.93" /><path
         id="path32"
         style="fill:#000000;fill-opacity:1;fill-rule:nonzero;stroke:none"
         d="m 5116.6,1908.05 -80.3,29.2 0.61,-60 z" /><path
         id="path34"
         style="fill:none;stroke:#000000;stroke-width:10;stroke-linecap:butt;stroke-linejoin:miter;stroke-miterlimit:10;stroke-dasharray:none;stroke-opacity:1"
         d="m 5116.6,1908.05 -80.3,29.2 0.61,-60 z" /><g
         transform="scale(10)"
         id="g36"><text
           id="text40"
           style="font-variant:normal;font-weight:normal;font-size:20px;font-family:HelveticaNeue;-inkscape-font-specification:HelveticaNeue;writing-mode:lr-tb;fill:#000000;fill-opacity:1;fill-rule:nonzero;stroke:none"
           transform="matrix(1,0,0,-1,518.56,184)"><tspan
             id="tspan38"
             y="0"
             x="0 18.52 28.5 32.959999 42.959999 53.700001 58.139999">Wyjście</tspan></text>
</g><path
         id="path42"
         style="fill:none;stroke:#000000;stroke-width:10;stroke-linecap:round;stroke-linejoin:round;stroke-miterlimit:10;stroke-dasharray:none;stroke-opacity:1"
         d="m 793.023,1908.26 132.981,-1.34" /><path
         id="path44"
         style="fill:#000000;fill-opacity:1;fill-rule:nonzero;stroke:none"
         d="m 1006,1906.12 -79.691,30.8 -0.606,-60 z" /><path
         id="path46"
         style="fill:none;stroke:#000000;stroke-width:10;stroke-linecap:butt;stroke-linejoin:miter;stroke-miterlimit:10;stroke-dasharray:none;stroke-opacity:1"
         d="m 1006,1906.12 -79.691,30.8 -0.606,-60 z" /><g
         transform="scale(10)"
         id="g48"><text
           id="text52"
           style="font-variant:normal;font-weight:normal;font-size:20px;font-family:HelveticaNeue;-inkscape-font-specification:HelveticaNeue;writing-mode:lr-tb;fill:#000000;fill-opacity:1;fill-rule:nonzero;stroke:none"
           transform="matrix(1,0,0,-1,5.82266,184)"><tspan
             id="tspan50"
             y="0"
             x="0 17.379999 28.1 32.560001 42.560001 53.299999 57.740002">Wejście</tspan></text>
</g><path
         id="path54"
         style="fill:#ffffff;fill-opacity:1;fill-rule:nonzero;stroke:none"
         d="m 2470,1630 h 990 v 540 h -990 z" /><path
         id="path56"
         style="fill:none;stroke:#000000;stroke-width:10;stroke-linecap:round;stroke-linejoin:round;stroke-miterlimit:10;stroke-dasharray:none;stroke-opacity:1"
         d="m 2470,1630 h 990 v 540 h -990 z" /><g
         transform="scale(10)"
         id="g58"><text
           id="text64"
           style="font-variant:normal;font-weight:normal;font-size:16px;font-family:HelveticaNeue;-inkscape-font-specification:HelveticaNeue;writing-mode:lr-tb;fill:#000000;fill-opacity:1;fill-rule:nonzero;stroke:none"
           transform="matrix(1,0,0,-1,252,197)"><tspan
             id="tspan60"
             y="0"
             x="0 12.16 21.648001 25.200001 33.792 42.096001">Obiekt</tspan><tspan
             id="tspan62"
             y="18.448"
             x="0 8 11.552 20.736 32.863998 41.759998 45.312 53.616001">słownika</tspan></text>
</g><path
         id="path66"
         style="fill:none;stroke:#000000;stroke-width:10;stroke-linecap:round;stroke-linejoin:round;stroke-miterlimit:10;stroke-dasharray:none;stroke-opacity:1"
         d="m 2985.77,1526.16 8.95,-161.17" /><path
         id="path68"
         style="fill:#000000;fill-opacity:1;fill-rule:nonzero;stroke:none"
         d="m 2981.33,1606.04 -25.51,-81.54 59.9,3.32 z" /><path
         id="path70"
         style="fill:none;stroke:#000000;stroke-width:10;stroke-linecap:butt;stroke-linejoin:miter;stroke-miterlimit:10;stroke-dasharray:none;stroke-opacity:1"
         d="m 2981.33,1606.04 -25.51,-81.54 59.9,3.32 z" /><path
         id="path72"
         style="fill:none;stroke:#000000;stroke-width:10;stroke-linecap:round;stroke-linejoin:round;stroke-miterlimit:10;stroke-dasharray:none;stroke-opacity:1"
         d="M 2283.44,1380.63 1660,1630" /><path
         id="path74"
         style="fill:#000000;fill-opacity:1;fill-rule:nonzero;stroke:none"
         d="m 2357.71,1350.91 -63.13,57.57 -22.28,-55.71 z" /><path
         id="path76"
         style="fill:none;stroke:#000000;stroke-width:10;stroke-linecap:butt;stroke-linejoin:miter;stroke-miterlimit:10;stroke-dasharray:none;stroke-opacity:1"
         d="m 2357.71,1350.91 -63.13,57.57 -22.28,-55.71 z" /><path
         id="path78"
         style="fill:#ffffff;fill-opacity:1;fill-rule:nonzero;stroke:none"
         d="m 3730,1630 h 1170 v 540 H 3730 Z" /><path
         id="path80"
         style="fill:none;stroke:#000000;stroke-width:10;stroke-linecap:round;stroke-linejoin:round;stroke-miterlimit:10;stroke-dasharray:none;stroke-opacity:1"
         d="m 3730,1630 h 1170 v 540 H 3730 Z" /><g
         transform="scale(10)"
         id="g82"><text
           id="text88"
           style="font-variant:normal;font-weight:normal;font-size:16px;font-family:HelveticaNeue;-inkscape-font-specification:HelveticaNeue;writing-mode:lr-tb;fill:#000000;fill-opacity:1;fill-rule:nonzero;stroke:none"
           transform="matrix(1,0,0,-1,378,197)"><tspan
             id="tspan84"
             y="0"
             x="0 12.16 21.648001 25.200001 33.792 42.096001">Obiekt</tspan><tspan
             id="tspan86"
             y="18.448"
             x="0 8.592 12.144 20.736 29.92 38.816002 43.264 50.944 59.84 68.431999 76.736 85.919998">ciągu znaków</tspan></text>
</g><path
         id="path90"
         style="fill:none;stroke:#000000;stroke-width:10;stroke-linecap:round;stroke-linejoin:round;stroke-miterlimit:10;stroke-dasharray:none;stroke-opacity:1"
         d="M 3626,1900 H 3465" /><path
         id="path92"
         style="fill:#000000;fill-opacity:1;fill-rule:nonzero;stroke:none"
         d="m 3706,1900 -80,30 v -60 z" /><path
         id="path94"
         style="fill:none;stroke:#000000;stroke-width:10;stroke-linecap:butt;stroke-linejoin:miter;stroke-miterlimit:10;stroke-dasharray:none;stroke-opacity:1"
         d="m 3706,1900 -80,30 v -60 z" /><path
         id="path96"
         style="fill:#ffffff;fill-opacity:1;fill-rule:nonzero;stroke:none"
         d="m 1300,10 h 990 v 540 h -990 z" /><path
         id="path98"
         style="fill:none;stroke:#000000;stroke-width:10;stroke-linecap:round;stroke-linejoin:round;stroke-miterlimit:10;stroke-dasharray:none;stroke-opacity:1"
         d="m 1300,10 h 990 v 540 h -990 z" /><g
         transform="scale(10)"
         id="g100"><text
           id="text106"
           style="font-variant:normal;font-weight:normal;font-size:16px;font-family:HelveticaNeue;-inkscape-font-specification:HelveticaNeue;writing-mode:lr-tb;fill:#000000;fill-opacity:1;fill-rule:nonzero;stroke:none"
           transform="matrix(1,0,0,-1,135,35)"><tspan
             id="tspan102"
             y="0"
             x="0 12.16 21.648001 25.200001 33.792 42.096001">Obiekt</tspan><tspan
             id="tspan104"
             y="18.448"
             x="0 9.184 18.08 21.632 30.224001 37.903999 47.391998">gniazda</tspan></text>
</g><path
         id="path108"
         style="fill:none;stroke:#000000;stroke-width:10;stroke-linecap:round;stroke-linejoin:round;stroke-miterlimit:10;stroke-dasharray:none;stroke-opacity:1"
         d="m 1539.11,634.313 -73.22,101.378" /><path
         id="path110"
         style="fill:#000000;fill-opacity:1;fill-rule:nonzero;stroke:none"
         d="m 1419.05,800.543 22.52,-82.418 48.64,35.129 z" /><path
         id="path112"
         style="fill:none;stroke:#000000;stroke-width:10;stroke-linecap:butt;stroke-linejoin:miter;stroke-miterlimit:10;stroke-dasharray:none;stroke-opacity:1"
         d="m 1419.05,800.543 22.52,-82.418 48.64,35.129 z" /><path
         id="path114"
         style="fill:#000000;fill-opacity:1;fill-rule:nonzero;stroke:none"
         d="m 1585.95,569.457 -22.52,82.418 -48.64,-35.129 z" /><path
         id="path116"
         style="fill:none;stroke:#000000;stroke-width:10;stroke-linecap:butt;stroke-linejoin:miter;stroke-miterlimit:10;stroke-dasharray:none;stroke-opacity:1"
         d="m 1585.95,569.457 -22.52,82.418 -48.64,-35.129 z" /><path
         id="path118"
         style="fill:#ffffff;fill-opacity:1;fill-rule:nonzero;stroke:none"
         d="m 580,820 h 1260 v 540 H 580 Z" /><path
         id="path120"
         style="fill:none;stroke:#000000;stroke-width:10;stroke-linecap:round;stroke-linejoin:round;stroke-miterlimit:10;stroke-dasharray:none;stroke-opacity:1"
         d="m 580,820 h 1260 v 540 H 580 Z" /><g
         transform="scale(10)"
         id="g122"><text
           id="text126"
           style="font-variant:normal;font-weight:normal;font-size:16px;font-family:HelveticaNeue;-inkscape-font-specification:HelveticaNeue;writing-mode:lr-tb;fill:#000000;fill-opacity:1;fill-rule:nonzero;stroke:none"
           transform="matrix(1,0,0,-1,63,116)"><tspan
             id="tspan124"
             y="0"
             x="0 12.16 21.648001 25.200001 33.792 42.096001 47.136002 51.584 60.48 65.807999 69.360001 72.912003 76.463997">Obiekt urllib</tspan></text>
</g><path
         id="path128"
         style="fill:none;stroke:#000000;stroke-width:10;stroke-linecap:round;stroke-linejoin:round;stroke-miterlimit:10;stroke-dasharray:none;stroke-opacity:1"
         d="m 1391.51,1453.02 41.98,83.96" /><path
         id="path130"
         style="fill:#000000;fill-opacity:1;fill-rule:nonzero;stroke:none"
         d="m 1469.27,1608.54 -62.61,-58.15 53.66,-26.83 z" /><path
         id="path132"
         style="fill:none;stroke:#000000;stroke-width:10;stroke-linecap:butt;stroke-linejoin:miter;stroke-miterlimit:10;stroke-dasharray:none;stroke-opacity:1"
         d="m 1469.27,1608.54 -62.61,-58.15 53.66,-26.83 z" /><path
         id="path134"
         style="fill:#000000;fill-opacity:1;fill-rule:nonzero;stroke:none"
         d="m 1355.73,1381.46 62.61,58.15 -53.66,26.83 z" /><path
         id="path136"
         style="fill:none;stroke:#000000;stroke-width:10;stroke-linecap:butt;stroke-linejoin:miter;stroke-miterlimit:10;stroke-dasharray:none;stroke-opacity:1"
         d="m 1355.73,1381.46 62.61,58.15 -53.66,26.83 z" /><path
         id="path138"
         style="fill:#ffffff;fill-opacity:1;fill-rule:nonzero;stroke:none"
         d="m 3010,10 h 990 v 540 h -990 z" /><path
         id="path140"
         style="fill:none;stroke:#000000;stroke-width:10;stroke-linecap:round;stroke-linejoin:round;stroke-miterlimit:10;stroke-dasharray:none;stroke-opacity:1"
         d="m 3010,10 h 990 v 540 h -990 z" /><g
         transform="scale(10)"
         id="g142"><text
           id="text148"
           style="font-variant:normal;font-weight:normal;font-size:16px;font-family:HelveticaNeue;-inkscape-font-specification:HelveticaNeue;writing-mode:lr-tb;fill:#000000;fill-opacity:1;fill-rule:nonzero;stroke:none"
           transform="matrix(1,0,0,-1,306,35)"><tspan
             id="tspan144"
             y="0"
             x="0 12.16 21.648001 25.200001 33.792 42.096001">Obiekt</tspan><tspan
             id="tspan146"
             y="18.448"
             x="0 8.8959999 13.936 27.584 31.136 35.584 45.071999 53.664001 58.992001 66.991997 75.584">html.parser</tspan></text>
</g><path
         id="path150"
         style="fill:none;stroke:#000000;stroke-width:10;stroke-linecap:round;stroke-linejoin:round;stroke-miterlimit:10;stroke-dasharray:none;stroke-opacity:1"
         d="M 3480,620.004 3353.54,746.461" /><path
         id="path152"
         style="fill:#000000;fill-opacity:1;fill-rule:nonzero;stroke:none"
         d="m 3296.97,803.031 35.36,-77.785 42.42,42.43 z" /><path
         id="path154"
         style="fill:none;stroke:#000000;stroke-width:10;stroke-linecap:butt;stroke-linejoin:miter;stroke-miterlimit:10;stroke-dasharray:none;stroke-opacity:1"
         d="m 3296.97,803.031 35.36,-77.785 42.42,42.43 z" /><path
         id="path156"
         style="fill:#000000;fill-opacity:1;fill-rule:nonzero;stroke:none"
         d="m 3536.57,563.434 -35.36,77.785 -42.42,-42.43 z" /><path
         id="path158"
         style="fill:none;stroke:#000000;stroke-width:10;stroke-linecap:butt;stroke-linejoin:miter;stroke-miterlimit:10;stroke-dasharray:none;stroke-opacity:1"
         d="m 3536.57,563.434 -35.36,77.785 -42.42,-42.43 z" /><path
         id="path160"
         style="fill:#ffffff;fill-opacity:1;fill-rule:nonzero;stroke:none"
         d="m 2380,820 h 1260 v 540 H 2380 Z" /><path
         id="path162"
         style="fill:none;stroke:#000000;stroke-width:10;stroke-linecap:round;stroke-linejoin:round;stroke-miterlimit:10;stroke-dasharray:none;stroke-opacity:1"
         d="m 2380,820 h 1260 v 540 H 2380 Z" /><g
         transform="scale(10)"
         id="g164"><text
           id="text170"
           style="font-variant:normal;font-weight:normal;font-size:16px;font-family:HelveticaNeue;-inkscape-font-specification:HelveticaNeue;writing-mode:lr-tb;fill:#000000;fill-opacity:1;fill-rule:nonzero;stroke:none"
           transform="matrix(1,0,0,-1,243,116)"><tspan
             id="tspan166"
             y="0"
             x="0 12.16 21.648001 25.200001 33.792 42.096001 47.136002">Obiekt </tspan><tspan
             id="tspan168"
             y="18.448"
             x="0 10.96 19.552 28.143999 37.040001 42.080002 45.632 50.368 59.264 62.816002 73.183998 82.367996 91.264">BeautifulSoup</tspan></text>
</g></g></g></svg>