<?xml version="1.0" encoding="UTF-8" standalone="no"?>
<svg
   xmlns:dc="http://purl.org/dc/elements/1.1/"
   xmlns:cc="http://creativecommons.org/ns#"
   xmlns:rdf="http://www.w3.org/1999/02/22-rdf-syntax-ns#"
   xmlns:svg="http://www.w3.org/2000/svg"
   xmlns="http://www.w3.org/2000/svg"
   viewBox="0 0 806.66669 314.66666"
   height="314.66666"
   width="806.66669"
   xml:space="preserve"
   id="svg2"
   version="1.1"><metadata
     id="metadata8"><rdf:RDF><cc:Work
         rdf:about=""><dc:format>image/svg+xml</dc:format><dc:type
           rdf:resource="http://purl.org/dc/dcmitype/StillImage" /></cc:Work></rdf:RDF></metadata><defs
     id="defs6" /><g
     transform="matrix(1.3333333,0,0,-1.3333333,0,314.66667)"
     id="g10"><g
       transform="scale(0.1)"
       id="g12"><path
         id="path14"
         style="fill:#ffffff;fill-opacity:1;fill-rule:nonzero;stroke:none"
         d="M 0,0 H 6050 V 2360 H 0 Z" /><path
         id="path16"
         style="fill:#ffffff;fill-opacity:1;fill-rule:nonzero;stroke:none"
         d="M 10,0 H 6770 V 2440 H 10 Z" /><path
         id="path18"
         style="fill:#ffffff;fill-opacity:1;fill-rule:nonzero;stroke:none"
         d="m 1090,1810 h 1170 v 540 H 1090 Z" /><path
         id="path20"
         style="fill:none;stroke:#000000;stroke-width:10;stroke-linecap:round;stroke-linejoin:round;stroke-miterlimit:10;stroke-dasharray:none;stroke-opacity:1"
         d="m 1090,1810 h 1170 v 540 H 1090 Z" /><g
         transform="scale(10)"
         id="g22"><text
           id="text28"
           style="font-variant:normal;font-weight:normal;font-size:16px;font-family:HelveticaNeue;-inkscape-font-specification:HelveticaNeue;writing-mode:lr-tb;fill:#000000;fill-opacity:1;fill-rule:nonzero;stroke:none"
           transform="matrix(1,0,0,-1,114,215)"><tspan
             id="tspan24"
             y="0"
             x="0 12.16 21.648001 25.200001 33.792 42.096001">Obiekt</tspan><tspan
             id="tspan26"
             y="18.448"
             x="0 8.592 12.144 20.736 29.92 38.816002 43.264 50.944 59.84 68.431999 76.736 85.919998">ciągu znaków</tspan></text>
</g><path
         id="path30"
         style="fill:none;stroke:#000000;stroke-width:10;stroke-linecap:round;stroke-linejoin:round;stroke-miterlimit:10;stroke-dasharray:none;stroke-opacity:1"
         d="M 5096.61,2087.25 4965,2085.93" /><path
         id="path32"
         style="fill:#000000;fill-opacity:1;fill-rule:nonzero;stroke:none"
         d="m 5176.6,2088.05 -80.3,29.2 0.61,-60 z" /><path
         id="path34"
         style="fill:none;stroke:#000000;stroke-width:10;stroke-linecap:butt;stroke-linejoin:miter;stroke-miterlimit:10;stroke-dasharray:none;stroke-opacity:1"
         d="m 5176.6,2088.05 -80.3,29.2 0.61,-60 z" /><g
         transform="scale(10)"
         id="g36"><text
           id="text40"
           style="font-variant:normal;font-weight:normal;font-size:20px;font-family:HelveticaNeue;-inkscape-font-specification:HelveticaNeue;writing-mode:lr-tb;fill:#000000;fill-opacity:1;fill-rule:nonzero;stroke:none"
           transform="matrix(1,0,0,-1,524.56,202)"><tspan
             id="tspan38"
             y="0"
             x="0 18.52 28.5 32.959999 42.959999 53.700001 58.139999">Wyjście</tspan></text>
</g><path
         id="path42"
         style="fill:none;stroke:#000000;stroke-width:10;stroke-linecap:round;stroke-linejoin:round;stroke-miterlimit:10;stroke-dasharray:none;stroke-opacity:1"
         d="m 853.023,2088.26 132.981,-1.34" /><path
         id="path44"
         style="fill:#000000;fill-opacity:1;fill-rule:nonzero;stroke:none"
         d="m 1066,2086.12 -79.691,30.8 -0.606,-60 z" /><path
         id="path46"
         style="fill:none;stroke:#000000;stroke-width:10;stroke-linecap:butt;stroke-linejoin:miter;stroke-miterlimit:10;stroke-dasharray:none;stroke-opacity:1"
         d="m 1066,2086.12 -79.691,30.8 -0.606,-60 z" /><g
         transform="scale(10)"
         id="g48"><text
           id="text52"
           style="font-variant:normal;font-weight:normal;font-size:20px;font-family:HelveticaNeue;-inkscape-font-specification:HelveticaNeue;writing-mode:lr-tb;fill:#000000;fill-opacity:1;fill-rule:nonzero;stroke:none"
           transform="matrix(1,0,0,-1,11.8227,202)"><tspan
             id="tspan50"
             y="0"
             x="0 17.379999 28.1 32.560001 42.560001 53.299999 57.740002">Wejście</tspan></text>
</g><path
         id="path54"
         style="fill:#ffffff;fill-opacity:1;fill-rule:nonzero;stroke:none"
         d="m 2530,1810 h 990 v 540 h -990 z" /><path
         id="path56"
         style="fill:none;stroke:#000000;stroke-width:10;stroke-linecap:round;stroke-linejoin:round;stroke-miterlimit:10;stroke-dasharray:none;stroke-opacity:1"
         d="m 2530,1810 h 990 v 540 h -990 z" /><g
         transform="scale(10)"
         id="g58"><text
           id="text64"
           style="font-variant:normal;font-weight:normal;font-size:16px;font-family:HelveticaNeue;-inkscape-font-specification:HelveticaNeue;writing-mode:lr-tb;fill:#000000;fill-opacity:1;fill-rule:nonzero;stroke:none"
           transform="matrix(1,0,0,-1,258,215)"><tspan
             id="tspan60"
             y="0"
             x="0 12.16 21.648001 25.200001 33.792 42.096001">Obiekt</tspan><tspan
             id="tspan62"
             y="18.448"
             x="0 8 11.552 20.736 32.863998 41.759998 45.312 53.616001">słownika</tspan></text>
</g><path
         id="path66"
         style="fill:none;stroke:#000000;stroke-width:10;stroke-linecap:round;stroke-linejoin:round;stroke-miterlimit:10;stroke-dasharray:none;stroke-opacity:1"
         d="m 3045.77,1706.16 8.95,-161.17" /><path
         id="path68"
         style="fill:#000000;fill-opacity:1;fill-rule:nonzero;stroke:none"
         d="m 3041.33,1786.04 -25.51,-81.54 59.9,3.32 z" /><path
         id="path70"
         style="fill:none;stroke:#000000;stroke-width:10;stroke-linecap:butt;stroke-linejoin:miter;stroke-miterlimit:10;stroke-dasharray:none;stroke-opacity:1"
         d="m 3041.33,1786.04 -25.51,-81.54 59.9,3.32 z" /><path
         id="path72"
         style="fill:none;stroke:#000000;stroke-width:10;stroke-linecap:round;stroke-linejoin:round;stroke-miterlimit:10;stroke-dasharray:none;stroke-opacity:1"
         d="M 2343.44,1560.63 1720,1810" /><path
         id="path74"
         style="fill:#000000;fill-opacity:1;fill-rule:nonzero;stroke:none"
         d="m 2417.71,1530.91 -63.13,57.57 -22.28,-55.71 z" /><path
         id="path76"
         style="fill:none;stroke:#000000;stroke-width:10;stroke-linecap:butt;stroke-linejoin:miter;stroke-miterlimit:10;stroke-dasharray:none;stroke-opacity:1"
         d="m 2417.71,1530.91 -63.13,57.57 -22.28,-55.71 z" /><path
         id="path78"
         style="fill:#ffffff;fill-opacity:1;fill-rule:nonzero;stroke:none"
         d="m 3790,1810 h 1170 v 540 H 3790 Z" /><path
         id="path80"
         style="fill:none;stroke:#000000;stroke-width:10;stroke-linecap:round;stroke-linejoin:round;stroke-miterlimit:10;stroke-dasharray:none;stroke-opacity:1"
         d="m 3790,1810 h 1170 v 540 H 3790 Z" /><g
         transform="scale(10)"
         id="g82"><text
           id="text88"
           style="font-variant:normal;font-weight:normal;font-size:16px;font-family:HelveticaNeue;-inkscape-font-specification:HelveticaNeue;writing-mode:lr-tb;fill:#000000;fill-opacity:1;fill-rule:nonzero;stroke:none"
           transform="matrix(1,0,0,-1,384,215)"><tspan
             id="tspan84"
             y="0"
             x="0 12.16 21.648001 25.200001 33.792 42.096001">Obiekt</tspan><tspan
             id="tspan86"
             y="18.448"
             x="0 8.592 12.144 20.736 29.92 38.816002 43.264 50.944 59.84 68.431999 76.736 85.919998">ciągu znaków</tspan></text>
</g><path
         id="path90"
         style="fill:none;stroke:#000000;stroke-width:10;stroke-linecap:round;stroke-linejoin:round;stroke-miterlimit:10;stroke-dasharray:none;stroke-opacity:1"
         d="M 3686,2080 H 3525" /><path
         id="path92"
         style="fill:#000000;fill-opacity:1;fill-rule:nonzero;stroke:none"
         d="m 3766,2080 -80,30 v -60 z" /><path
         id="path94"
         style="fill:none;stroke:#000000;stroke-width:10;stroke-linecap:butt;stroke-linejoin:miter;stroke-miterlimit:10;stroke-dasharray:none;stroke-opacity:1"
         d="m 3766,2080 -80,30 v -60 z" /><path
         id="path96"
         style="fill:#ffffff;fill-opacity:1;fill-rule:nonzero;stroke:none"
         d="m 1360,190 h 990 v 540 h -990 z" /><path
         id="path98"
         style="fill:none;stroke:#000000;stroke-width:10;stroke-linecap:round;stroke-linejoin:round;stroke-miterlimit:10;stroke-dasharray:none;stroke-opacity:1"
         d="m 1360,190 h 990 v 540 h -990 z" /><g
         transform="scale(10)"
         id="g100"><text
           id="text106"
           style="font-variant:normal;font-weight:normal;font-size:16px;font-family:HelveticaNeue;-inkscape-font-specification:HelveticaNeue;writing-mode:lr-tb;fill:#000000;fill-opacity:1;fill-rule:nonzero;stroke:none"
           transform="matrix(1,0,0,-1,141,53)"><tspan
             id="tspan102"
             y="0"
             x="0 12.16 21.648001 25.200001 33.792 42.096001">Obiekt</tspan><tspan
             id="tspan104"
             y="18.448"
             x="0 9.184 18.08 21.632 30.224001 37.903999 47.391998">gniazda</tspan></text>
</g><path
         id="path108"
         style="fill:none;stroke:#000000;stroke-width:10;stroke-linecap:round;stroke-linejoin:round;stroke-miterlimit:10;stroke-dasharray:none;stroke-opacity:1"
         d="m 1599.11,814.313 -73.22,101.378" /><path
         id="path110"
         style="fill:#000000;fill-opacity:1;fill-rule:nonzero;stroke:none"
         d="m 1479.05,980.543 22.52,-82.418 48.64,35.129 z" /><path
         id="path112"
         style="fill:none;stroke:#000000;stroke-width:10;stroke-linecap:butt;stroke-linejoin:miter;stroke-miterlimit:10;stroke-dasharray:none;stroke-opacity:1"
         d="m 1479.05,980.543 22.52,-82.418 48.64,35.129 z" /><path
         id="path114"
         style="fill:#000000;fill-opacity:1;fill-rule:nonzero;stroke:none"
         d="m 1645.95,749.457 -22.52,82.418 -48.64,-35.129 z" /><path
         id="path116"
         style="fill:none;stroke:#000000;stroke-width:10;stroke-linecap:butt;stroke-linejoin:miter;stroke-miterlimit:10;stroke-dasharray:none;stroke-opacity:1"
         d="m 1645.95,749.457 -22.52,82.418 -48.64,-35.129 z" /><path
         id="path118"
         style="fill:#ffffff;fill-opacity:1;fill-rule:nonzero;stroke:none"
         d="m 640,1000 h 1260 v 540 H 640 Z" /><path
         id="path120"
         style="fill:none;stroke:#000000;stroke-width:10;stroke-linecap:round;stroke-linejoin:round;stroke-miterlimit:10;stroke-dasharray:none;stroke-opacity:1"
         d="m 640,1000 h 1260 v 540 H 640 Z" /><g
         transform="scale(10)"
         id="g122"><text
           id="text126"
           style="font-variant:normal;font-weight:normal;font-size:16px;font-family:HelveticaNeue;-inkscape-font-specification:HelveticaNeue;writing-mode:lr-tb;fill:#000000;fill-opacity:1;fill-rule:nonzero;stroke:none"
           transform="matrix(1,0,0,-1,69,134)"><tspan
             id="tspan124"
             y="0"
             x="0 12.16 21.648001 25.200001 33.792 42.096001 47.136002 51.584 60.48 65.807999 69.360001 72.912003 76.463997">Obiekt urllib</tspan></text>
</g><path
         id="path128"
         style="fill:none;stroke:#000000;stroke-width:10;stroke-linecap:round;stroke-linejoin:round;stroke-miterlimit:10;stroke-dasharray:none;stroke-opacity:1"
         d="m 1451.51,1633.02 41.98,83.96" /><path
         id="path130"
         style="fill:#000000;fill-opacity:1;fill-rule:nonzero;stroke:none"
         d="m 1529.27,1788.54 -62.61,-58.15 53.66,-26.83 z" /><path
         id="path132"
         style="fill:none;stroke:#000000;stroke-width:10;stroke-linecap:butt;stroke-linejoin:miter;stroke-miterlimit:10;stroke-dasharray:none;stroke-opacity:1"
         d="m 1529.27,1788.54 -62.61,-58.15 53.66,-26.83 z" /><path
         id="path134"
         style="fill:#000000;fill-opacity:1;fill-rule:nonzero;stroke:none"
         d="m 1415.73,1561.46 62.61,58.15 -53.66,26.83 z" /><path
         id="path136"
         style="fill:none;stroke:#000000;stroke-width:10;stroke-linecap:butt;stroke-linejoin:miter;stroke-miterlimit:10;stroke-dasharray:none;stroke-opacity:1"
         d="m 1415.73,1561.46 62.61,58.15 -53.66,26.83 z" /><path
         id="path138"
         style="fill:#ffffff;fill-opacity:1;fill-rule:nonzero;stroke:none"
         d="m 3070,190 h 990 v 540 h -990 z" /><path
         id="path140"
         style="fill:none;stroke:#000000;stroke-width:10;stroke-linecap:round;stroke-linejoin:round;stroke-miterlimit:10;stroke-dasharray:none;stroke-opacity:1"
         d="m 3070,190 h 990 v 540 h -990 z" /><g
         transform="scale(10)"
         id="g142"><text
           id="text148"
           style="font-variant:normal;font-weight:normal;font-size:16px;font-family:HelveticaNeue;-inkscape-font-specification:HelveticaNeue;writing-mode:lr-tb;fill:#000000;fill-opacity:1;fill-rule:nonzero;stroke:none"
           transform="matrix(1,0,0,-1,312,53)"><tspan
             id="tspan144"
             y="0"
             x="0 12.16 21.648001 25.200001 33.792 42.096001">Obiekt</tspan><tspan
             id="tspan146"
             y="18.448"
             x="0 8.8959999 13.936 27.584 31.136 35.584 45.071999 53.664001 58.992001 66.991997 75.584">html.parser</tspan></text>
</g><path
         id="path150"
         style="fill:none;stroke:#000000;stroke-width:10;stroke-linecap:round;stroke-linejoin:round;stroke-miterlimit:10;stroke-dasharray:none;stroke-opacity:1"
         d="M 3540,800.004 3413.54,926.461" /><path
         id="path152"
         style="fill:#000000;fill-opacity:1;fill-rule:nonzero;stroke:none"
         d="m 3356.97,983.031 35.36,-77.785 42.42,42.43 z" /><path
         id="path154"
         style="fill:none;stroke:#000000;stroke-width:10;stroke-linecap:butt;stroke-linejoin:miter;stroke-miterlimit:10;stroke-dasharray:none;stroke-opacity:1"
         d="m 3356.97,983.031 35.36,-77.785 42.42,42.43 z" /><path
         id="path156"
         style="fill:#000000;fill-opacity:1;fill-rule:nonzero;stroke:none"
         d="m 3596.57,743.434 -35.36,77.785 -42.42,-42.43 z" /><path
         id="path158"
         style="fill:none;stroke:#000000;stroke-width:10;stroke-linecap:butt;stroke-linejoin:miter;stroke-miterlimit:10;stroke-dasharray:none;stroke-opacity:1"
         d="m 3596.57,743.434 -35.36,77.785 -42.42,-42.43 z" /><path
         id="path160"
         style="fill:none;stroke:#000000;stroke-width:10;stroke-linecap:round;stroke-linejoin:round;stroke-miterlimit:10;stroke-dasharray:none;stroke-opacity:1"
         d="M 10,10 H 6040 V 1630 H 10 Z" /><path
         id="path162"
         style="fill:#ffffff;fill-opacity:1;fill-rule:nonzero;stroke:none"
         d="m 2440,1000 h 1260 v 540 H 2440 Z" /><path
         id="path164"
         style="fill:none;stroke:#000000;stroke-width:10;stroke-linecap:round;stroke-linejoin:round;stroke-miterlimit:10;stroke-dasharray:none;stroke-opacity:1"
         d="m 2440,1000 h 1260 v 540 H 2440 Z" /><g
         transform="scale(10)"
         id="g166"><text
           id="text172"
           style="font-variant:normal;font-weight:normal;font-size:16px;font-family:HelveticaNeue;-inkscape-font-specification:HelveticaNeue;writing-mode:lr-tb;fill:#000000;fill-opacity:1;fill-rule:nonzero;stroke:none"
           transform="matrix(1,0,0,-1,249,134)"><tspan
             id="tspan168"
             y="0"
             x="0 12.16 21.648001 25.200001 33.792 42.096001 47.136002">Obiekt </tspan><tspan
             id="tspan170"
             y="18.448"
             x="0 10.96 19.552 28.143999 37.040001 42.080002 45.632 50.368 59.264 62.816002 73.183998 82.367996 91.264">BeautifulSoup</tspan></text>
</g></g></g></svg>