<?xml version="1.0" encoding="UTF-8" standalone="no"?>
<svg
   xmlns:dc="http://purl.org/dc/elements/1.1/"
   xmlns:cc="http://creativecommons.org/ns#"
   xmlns:rdf="http://www.w3.org/1999/02/22-rdf-syntax-ns#"
   xmlns:svg="http://www.w3.org/2000/svg"
   xmlns="http://www.w3.org/2000/svg"
   viewBox="0 0 650.66669 434.66666"
   height="434.66666"
   width="650.66669"
   xml:space="preserve"
   id="svg2"
   version="1.1"><metadata
     id="metadata8"><rdf:RDF><cc:Work
         rdf:about=""><dc:format>image/svg+xml</dc:format><dc:type
           rdf:resource="http://purl.org/dc/dcmitype/StillImage" /></cc:Work></rdf:RDF></metadata><defs
     id="defs6" /><g
     transform="matrix(1.3333333,0,0,-1.3333333,0,434.66667)"
     id="g10"><g
       transform="scale(0.1)"
       id="g12"><path
         id="path14"
         style="fill:#ffffff;fill-opacity:1;fill-rule:nonzero;stroke:none"
         d="M 0,0 H 4880 V 3260 H 0 Z" /><path
         id="path16"
         style="fill:#ffffff;fill-opacity:1;fill-rule:nonzero;stroke:none"
         d="M 10,0 H 5600 V 3370 H 10 Z" /><path
         id="path18"
         style="fill:#45a1f2;fill-opacity:1;fill-rule:nonzero;stroke:none"
         d="m 221.199,2641.83 c -261.824,53.17 -157.4138,500.8 260.254,424.42 38.75,148.89 524.437,124.72 521.267,0 304.55,159.52 693.73,-158.56 432.69,-318.08 313.24,-77.33 -3.96,-494.03 -261.03,-424.42 -20.58,-116.02 -480.157,-156.62 -520.493,0 -260.239,-167.26 -802.875,89.91 -432.688,318.08 z" /><path
         id="path20"
         style="fill:none;stroke:#000000;stroke-width:10;stroke-linecap:round;stroke-linejoin:round;stroke-miterlimit:10;stroke-dasharray:none;stroke-opacity:1"
         d="m 221.199,2641.83 c -261.824,53.17 -157.4138,500.8 260.254,424.42 38.75,148.89 524.437,124.72 521.267,0 304.55,159.52 693.73,-158.56 432.69,-318.08 313.24,-77.33 -3.96,-494.03 -261.03,-424.42 -20.58,-116.02 -480.157,-156.62 -520.493,0 -260.239,-167.26 -802.875,89.91 -432.688,318.08 z" /><g
         transform="scale(10)"
         id="g22"><text
           id="text30"
           style="font-variant:normal;font-weight:normal;font-size:16px;font-family:HelveticaNeue;-inkscape-font-specification:HelveticaNeue;writing-mode:lr-tb;fill:#000000;fill-opacity:1;fill-rule:nonzero;stroke:none"
           transform="matrix(1,0,0,-1,57.1121,282.172)"><tspan
             id="tspan24"
             y="0"
             x="0 11.552 19.552 23.104 32 41.183998 49.776001">Usługa </tspan><tspan
             id="tspan26"
             y="18.448"
             x="-25.3043 -13.1763 -5.1763 4.3116999 13.4957 21.175699 29.175699 37.7677 45.447701 54.0397 62.935699 66.487701 75.079697">wypożyczania </tspan><tspan
             id="tspan28"
             y="36.895699"
             x="-23.56016 -15.56016 -6.9681602 6.6798401 15.86384 24.455839 33.351841 42.535839 52.023842 61.20784">samochodów</tspan></text>
</g><path
         id="path32"
         style="fill:#e6b92a;fill-opacity:1;fill-rule:nonzero;stroke:none"
         d="m 1829.46,2701.83 c -247.27,53.17 -148.66,500.8 245.8,424.42 36.6,148.89 495.31,124.72 492.31,0 287.63,159.52 655.19,-158.56 408.64,-318.08 295.85,-77.33 -3.73,-494.03 -246.52,-424.42 -19.43,-116.02 -453.48,-156.62 -491.58,0 -245.77,-167.26 -758.26,89.91 -408.65,318.08 z" /><path
         id="path34"
         style="fill:none;stroke:#000000;stroke-width:10;stroke-linecap:round;stroke-linejoin:round;stroke-miterlimit:10;stroke-dasharray:none;stroke-opacity:1"
         d="m 1829.46,2701.83 c -247.27,53.17 -148.66,500.8 245.8,424.42 36.6,148.89 495.31,124.72 492.31,0 287.63,159.52 655.19,-158.56 408.64,-318.08 295.85,-77.33 -3.73,-494.03 -246.52,-424.42 -19.43,-116.02 -453.48,-156.62 -491.58,0 -245.77,-167.26 -758.26,89.91 -408.65,318.08 z" /><g
         transform="scale(10)"
         id="g36"><text
           id="text44"
           style="font-variant:normal;font-weight:normal;font-size:16px;font-family:HelveticaNeue;-inkscape-font-specification:HelveticaNeue;writing-mode:lr-tb;fill:#000000;fill-opacity:1;fill-rule:nonzero;stroke:none"
           transform="matrix(1,0,0,-1,214.612,288.172)"><tspan
             id="tspan38"
             y="0"
             x="0 11.552 19.552 23.104 32 41.183998 49.776001">Usługa </tspan><tspan
             id="tspan40"
             y="18.448"
             x="-10.9359 -5.8958998 2.6961 10.3761 18.9681 24.296101 36.424099 45.016102 53.592098 57.160099 60.712101">rezerwacji </tspan><tspan
             id="tspan42"
             y="36.895699"
             x="-16.1441 -7.2480998 1.9359 6.9759002 15.5679 19.1199 28.3039 40.4319 48.4319 57.023899">hotelowych</tspan></text>
</g><path
         id="path46"
         style="fill:#f77789;fill-opacity:1;fill-rule:nonzero;stroke:none"
         d="m 3539.46,2705.05 c -247.27,49.95 -148.66,470.45 245.8,398.7 36.6,139.86 495.31,117.16 492.31,0 287.63,149.85 655.19,-148.95 408.64,-298.8 295.85,-72.65 -3.73,-464.09 -246.52,-398.7 -19.43,-108.99 -453.48,-147.12 -491.58,0 -245.77,-157.12 -758.26,84.46 -408.65,298.8 z" /><path
         id="path48"
         style="fill:none;stroke:#000000;stroke-width:10;stroke-linecap:round;stroke-linejoin:round;stroke-miterlimit:10;stroke-dasharray:none;stroke-opacity:1"
         d="m 3539.46,2705.05 c -247.27,49.95 -148.66,470.45 245.8,398.7 36.6,139.86 495.31,117.16 492.31,0 287.63,149.85 655.19,-148.95 408.64,-298.8 295.85,-72.65 -3.73,-464.09 -246.52,-398.7 -19.43,-108.99 -453.48,-147.12 -491.58,0 -245.77,-157.12 -758.26,84.46 -408.65,298.8 z" /><g
         transform="scale(10)"
         id="g50"><text
           id="text58"
           style="font-variant:normal;font-weight:normal;font-size:16px;font-family:HelveticaNeue;-inkscape-font-specification:HelveticaNeue;writing-mode:lr-tb;fill:#000000;fill-opacity:1;fill-rule:nonzero;stroke:none"
           transform="matrix(1,0,0,-1,385.612,288.172)"><tspan
             id="tspan52"
             y="0"
             x="0 11.552 19.552 23.104 32 41.183998 49.776001">Usługa </tspan><tspan
             id="tspan54"
             y="18.448"
             x="-10.9359 -5.8958998 2.6961 10.3761 18.9681 24.296101 36.424099 45.016102 53.592098 57.160099 60.712101">rezerwacji </tspan><tspan
             id="tspan56"
             y="36.895699"
             x="-11.103869 -7.5518689 1.632131 6.6721311 15.568131 19.120131 27.712132 35.392132 43.392132 51.984131">lotniczych</tspan></text>
</g><path
         id="path60"
         style="fill:#e1e1e1;fill-opacity:1;fill-rule:nonzero;stroke:none"
         d="M 1870,10 H 3070 V 580 H 1870 Z" /><path
         id="path62"
         style="fill:none;stroke:#000000;stroke-width:10;stroke-linecap:round;stroke-linejoin:round;stroke-miterlimit:10;stroke-dasharray:none;stroke-opacity:1"
         d="M 1870,10 H 3070 V 580 H 1870 Z" /><g
         transform="scale(10)"
         id="g64"><text
           id="text70"
           style="font-variant:normal;font-weight:normal;font-size:16px;font-family:HelveticaNeue;-inkscape-font-specification:HelveticaNeue;writing-mode:lr-tb;fill:#000000;fill-opacity:1;fill-rule:nonzero;stroke:none"
           transform="matrix(1,0,0,-1,214.688,32.948)"><tspan
             id="tspan66"
             y="0"
             x="0 10.384 19.872 23.424 26.976 35.279999 43.872002 52.448002 56.015999 64.608002">Aplikacja </tspan><tspan
             id="tspan68"
             y="18.448"
             x="-1.6078399 7.8801599 17.064159 26.55216 31.880159 41.064159 48.74416 57.64016">podróżna</tspan></text>
</g><path
         id="path72"
         style="fill:#e6b92a;fill-opacity:1;fill-rule:nonzero;stroke:none"
         d="m 2409.52,2278.88 79.53,-147.65 -37.48,-1.14 42.5,-1394.02 37.48,1.145 -70.39,-152.219 -79.54,147.645 37.49,1.144 -42.5,1394.015 -37.49,-1.14 z" /><path
         id="path74"
         style="fill:none;stroke:#000000;stroke-width:10;stroke-linecap:round;stroke-linejoin:round;stroke-miterlimit:10;stroke-dasharray:none;stroke-opacity:1"
         d="m 2409.52,2278.88 79.53,-147.65 -37.48,-1.14 42.5,-1394.02 37.48,1.145 -70.39,-152.219 -79.54,147.649 37.49,1.14 -42.5,1394.015 -37.49,-1.14 z" /><path
         id="path76"
         style="fill:#e6b92a;fill-opacity:1;fill-rule:nonzero;stroke:none"
         d="m 1810,1660 h 1200 v 300 H 1810 Z" /><path
         id="path78"
         style="fill:none;stroke:#000000;stroke-width:10;stroke-linecap:round;stroke-linejoin:round;stroke-miterlimit:10;stroke-dasharray:none;stroke-opacity:1"
         d="m 1810,1660 h 1200 v 300 H 1810 Z" /><g
         transform="scale(10)"
         id="g80"><text
           id="text84"
           style="font-variant:normal;font-weight:normal;font-size:16px;font-family:HelveticaNeue;-inkscape-font-specification:HelveticaNeue;writing-mode:lr-tb;fill:#000000;fill-opacity:1;fill-rule:nonzero;stroke:none"
           transform="matrix(1,0,0,-1,228.544,175.224)"><tspan
             id="tspan82"
             y="0"
             x="0 10.384 20.752001">API</tspan></text>
</g><path
         id="path86"
         style="fill:#45a1f2;fill-opacity:1;fill-rule:nonzero;stroke:none"
         d="m 1119.04,2260.04 146.78,-81.12 -30.9,-21.24 982.23,-1428.707 30.9,21.242 23.18,-166.094 -146.78,81.117 30.9,21.242 -982.24,1428.71 -30.9,-21.25 z" /><path
         id="path88"
         style="fill:none;stroke:#000000;stroke-width:10;stroke-linecap:round;stroke-linejoin:round;stroke-miterlimit:10;stroke-dasharray:none;stroke-opacity:1"
         d="m 1119.04,2260.04 146.78,-81.12 -30.9,-21.24 982.23,-1428.707 30.9,21.242 23.18,-166.094 -146.78,81.117 30.9,21.242 -982.24,1428.71 -30.9,-21.25 z" /><path
         id="path90"
         style="fill:#45a1f2;fill-opacity:1;fill-rule:nonzero;stroke:none"
         d="m 970,1210 h 1200 v 300 H 970 Z" /><path
         id="path92"
         style="fill:none;stroke:#000000;stroke-width:10;stroke-linecap:round;stroke-linejoin:round;stroke-miterlimit:10;stroke-dasharray:none;stroke-opacity:1"
         d="m 970,1210 h 1200 v 300 H 970 Z" /><g
         transform="scale(10)"
         id="g94"><text
           id="text98"
           style="font-variant:normal;font-weight:normal;font-size:16px;font-family:HelveticaNeue;-inkscape-font-specification:HelveticaNeue;writing-mode:lr-tb;fill:#000000;fill-opacity:1;fill-rule:nonzero;stroke:none"
           transform="matrix(1,0,0,-1,144.544,130.224)"><tspan
             id="tspan96"
             y="0"
             x="0 10.384 20.752001">API</tspan></text>
</g><path
         id="path100"
         style="fill:#f77789;fill-opacity:1;fill-rule:nonzero;stroke:none"
         d="m 4006.37,2327.57 -30.62,-164.88 -29.92,22.61 -1137.03,-1504.261 29.92,-22.613 -150.28,-74.438 30.61,164.887 29.92,-22.613 1137.03,1504.268 -29.91,22.61 z" /><path
         id="path102"
         style="fill:none;stroke:#000000;stroke-width:10;stroke-linecap:round;stroke-linejoin:round;stroke-miterlimit:10;stroke-dasharray:none;stroke-opacity:1"
         d="m 4006.37,2327.57 -30.62,-164.88 -29.92,22.61 -1137.03,-1504.261 29.92,-22.613 -150.28,-74.438 30.61,164.887 29.92,-22.613 1137.03,1504.268 -29.91,22.61 z" /><path
         id="path104"
         style="fill:#f77789;fill-opacity:1;fill-rule:nonzero;stroke:none"
         d="m 2710,1210 h 1200 v 300 H 2710 Z" /><path
         id="path106"
         style="fill:none;stroke:#000000;stroke-width:10;stroke-linecap:round;stroke-linejoin:round;stroke-miterlimit:10;stroke-dasharray:none;stroke-opacity:1"
         d="m 2710,1210 h 1200 v 300 H 2710 Z" /><g
         transform="scale(10)"
         id="g108"><text
           id="text112"
           style="font-variant:normal;font-weight:normal;font-size:16px;font-family:HelveticaNeue;-inkscape-font-specification:HelveticaNeue;writing-mode:lr-tb;fill:#000000;fill-opacity:1;fill-rule:nonzero;stroke:none"
           transform="matrix(1,0,0,-1,318.544,130.224)"><tspan
             id="tspan110"
             y="0"
             x="0 10.384 20.752001">API</tspan></text>
</g></g></g></svg>